<?xml version="1.0" encoding="UTF-8"?>
<svg width="640" height="640" version="1.1" viewBox="0 0 480 480" xmlns="http://www.w3.org/2000/svg">
 <path d="m479.84 239.98c0.0177 254.39 14.566 239.83-239.82 239.87-254.39 0.01806-239.83 14.566-239.87-239.82-0.018065-254.39-14.566-239.83 239.82-239.87 254.39-0.018058 239.83-14.566 239.87 239.82z" fill="#f6f5f4" stroke-width="1.5572"/>
 <path d="m283.32 11.55c24.652-5.2299 49.845-8.9725 75.235-9.4052-56.173 13.76-109.01 38.066-154.15 70.494-56.261 40.393-100.64 94.604-122.22 155.93-16.707 46.849-19.23 97.738-5.986 145.49 9.9059 36.677 29.028 71.283 55.07 101.13-40.482-25.726-73.718-60.766-93.204-101.43-21.813-44.848-26.751-95.807-14.282-143.31 12.971-51.018 44.463-97.63 86.443-134.25 47.45-41.605 108.42-70.544 173.18-84.718z" fill="#535353" stroke-width="1.4384"/>
 <path d="m157.36 132.61h200.19c-0.15844 14.026-0.0613 28.052-0.0288 42.078-44.306 0.0206-88.611 0-132.96 0.0206 0.0606 15.406 0.18986 30.792-0.12662 46.198 39.456 0.0691 78.892-0.0206 118.28 0.0454-0.28512 13.957-0.28512 27.934 0 41.891-39.426 0.0208-78.892-0.0452-118.28 0.0208 0.44329 30.299 0 60.599 0.253 90.879-22.512 0-45.006 0.0204-67.517 0 0.31675-73.708 0.0612-147.46 0.12677-221.19z" fill="#535353" stroke-width="2.7252"/>
 <path d="m310.43 190.17c22.306-13.947 51.629-17.21 78.932-15.977 22.906 0.60896 45.252 6.1527 65.695 14.479-5.7964 12.538-11.315 25.154-16.913 37.761-22.344-9.542-48.199-14.213-73.215-10.497-7.06 1.1018-14.804 3.1587-18.758 8.4726-5.4353 7.5347-3.5908 18.393 5.1955 23.744 13.257 8.6368 30.27 11.532 45.617 16.766 19.821 6.7121 41.181 13.257 55.197 27.263 13.041 12.882 16.145 30.536 14.746 46.77-1.3043 15.317-9.965 30.369-25.055 39.732-18.895 11.946-43.428 15.396-66.7 16.253-33.059 1.1023-67.173-2.9774-96.605-15.988 5.7965-12.567 10.99-25.282 16.608-37.909 16.974 6.7292 35.139 11.897 54.103 12.754 15.603 0.62503 32.478 1.7436 46.779-4.4424 13.316-5.8242 14.439-22.571 3.9111-30.783-8.6854-6.6799-20.097-10.221-30.95-13.849-23.311-7.2059-48.879-12.715-66.917-27.707-28.861-23.36-23.854-67.143 8.324-86.837z" fill="#e06438" stroke-width="1.8166"/>
</svg>
