<?xml version="1.0" encoding="UTF-8"?>
<svg width="500pt" height="500pt" version="1.1" viewBox="0 0 500 500" xmlns="http://www.w3.org/2000/svg" xmlns:cc="http://creativecommons.org/ns#" xmlns:dc="http://purl.org/dc/elements/1.1/" xmlns:rdf="http://www.w3.org/1999/02/22-rdf-syntax-ns#">
 <metadata>
  <rdf:RDF>
   <cc:Work rdf:about="">
    <dc:format>image/svg+xml</dc:format>
    <dc:type rdf:resource="http://purl.org/dc/dcmitype/StillImage"/>
   </cc:Work>
  </rdf:RDF>
 </metadata>
 <g fill="#535353">
  <path d="m209.5 81.9c16.1-3.87 32.56-6.64 49.14-6.96-36.69 10.18-71.19 28.17-100.7 52.17-36.75 29.89-65.71 70.01-79.82 115.4-10.91 34.67-12.56 72.33-3.91 107.7 6.47 27.14 18.96 52.75 35.97 74.83-26.44-19.04-48.15-44.97-60.88-75.07-14.25-33.19-17.47-70.9-9.33-106.1 8.47-37.75 29.04-72.25 56.46-99.32 30.99-30.79 70.79-52.2 113.1-62.69z"/>
  <path transform="scale(.75)" d="m364.6 180.8c-11.99 0.36-24.04 0.8937-35.8 3.4 0.1867 41.23 0.1077 82.47 0.04101 123.7 9.48 0.01333 18.96 0 28.43 0-0.08-15.25 9.3e-4 -30.51-0.03907-45.76h13.96c11.25 14.13 19.97 30.03 28.76 45.75 10.65 0.06667 21.31-0.0536 31.96 0.0664-8.787-17.97-18.69-35.56-31.31-51.15 6.347-2.96 12.64-6.627 16.93-12.31 7.067-9.213 7.892-21.84 5.545-32.87-1.8-9.36-8.012-17.57-16.33-22.16-12.76-7.16-27.77-8.573-42.15-8.666zm4.109 24.28c6.453 0.00677 12.87 0.7504 18.7 3.65 10.52 5 9.988 23.03-0.7324 27.51-9.213 4.16-19.63 3.068-29.47 3.281 0.01333-11.32 0.07899-22.65-0.04101-33.96 3.78-0.22 7.665-0.4806 11.54-0.4766z" stroke-width="1.333"/>
  <path d="m181.6 136.6h63.22c-0.05 5.98-0.02 11.96-0.01 17.94-13.99 0.01-27.98 0-41.97 0.01 0.02 6.57 0.06 13.13-0.04 19.7 12.46 0.03 24.91-0.01 37.36 0.02-0.09 5.95-0.09 11.91 0 17.86-12.45 0.01-24.91-0.02-37.36 0.01 0.14 12.92 0 25.84 0.08 38.75-7.11 0-14.21 0.01-21.32 0 0.1-31.43 0.02-62.86 0.04-94.29z"/>
  <path d="m324.2 136.6h63.88c-0.01 5.98-0.03 11.95 0.02 17.93-14.2 0.03-28.39 0-42.59 0.02 0.05 6.14 0.06 12.29 0 18.43 12.58 0.02 25.16-0.03 37.74 0.03-0.08 5.81-0.08 11.62-0.01 17.43-12.58 0.04-25.15 0-37.73 0.02 0.06 7.53 0.06 15.06 0 22.58 15.23 0.02 30.45 0 45.67 0.02-0.08 5.94-0.07 11.89-0.01 17.83-22.3 0-44.6 0.01-66.9 0-0.15-31.43-0.02-62.86-0.07-94.29z"/>
  <path d="m393.4 136.6c21.28-0.01 42.57-0.01 63.86 0-0.01 5.97-0.04 11.94 0.03 17.91-14.2 0.06-28.4 0.01-42.6 0.03 0.02 6.14 0.06 12.29-0.04 18.43 12.59 0.03 25.19-0.04 37.78 0.04-0.11 5.8-0.1 11.6-0.01 17.4-12.58 0.08-25.17 0.01-37.76 0.04 0.07 7.53 0.1 15.06-0.02 22.58 15.25 0.04 30.49-0.03 45.74 0.04-0.12 5.93-0.09 11.87-0.03 17.81-22.32 0.01-44.64 0-66.95 0 0-31.43-0.02-62.86 0-94.28z"/>
 </g>
 <g fill="#e06438">
  <path d="m126.1 243.4c11.12-8.48 25.74-10.46 39.35-9.71 11.42 0.37 22.56 3.74 32.75 8.8-2.89 7.62-5.64 15.29-8.43 22.95-11.14-5.8-24.03-8.64-36.5-6.38-3.52 0.67-7.38 1.92-9.35 5.15-2.71 4.58-1.79 11.18 2.59 14.43 6.61 5.25 15.09 7.01 22.74 10.19 9.88 4.08 20.53 8.06 27.52 16.57 6.5 7.83 8.05 18.56 7.35 28.43-0.65 9.31-4.97 18.46-12.49 24.15-9.42 7.26-21.65 9.36-33.25 9.88-16.48 0.67-33.49-1.81-48.16-9.72 2.89-7.64 5.48-15.37 8.28-23.04 8.46 4.09 17.52 7.23 26.97 7.75 7.78 0.38 16.19 1.06 23.32-2.7 6.64-3.54 7.2-13.72 1.95-18.71-4.33-4.06-10.02-6.21-15.43-8.42-11.62-4.38-24.37-7.73-33.36-16.84-14.39-14.2-11.89-40.81 4.15-52.78z"/>
  <path transform="scale(.75)" d="m388 313.4c-1.558 0.00277-3.11 0.02107-4.656 0.05273-15.6 0.3333-31.23 1.359-46.6 4.199 0.2133 55.77 0.04042 111.5 0.09375 167.3 26.23 4.44 53.35 6.44 79.71 1.934 21.72-3.573 43.37-14.01 56.01-32.63 14.33-20.48 16.45-46.79 13.55-70.95-2.52-20.84-12.96-41.31-30.67-53.17-19.66-13.38-44.07-16.8-67.44-16.76zm3.645 33.1c11.96 0.03402 23.91 1.562 34.38 7.658 12.13 6.987 18.59 20.71 20.4 34.15 1.453 12.15 1.308 24.84-2.959 36.45-3.893 11.07-12.03 20.8-22.85 25.6-14.03 6.493-29.97 6.146-45.07 5.199-0.04-36.16 0.1199-72.3-0.08008-108.5 5.304-0.3125 10.74-0.6073 16.18-0.5918z" stroke-width="1.333"/>
  <path d="m210.6 236.6c9.71 0 19.43 0.01 29.15-0.01 0 42.92-0.03 85.83 0.01 128.8-9.74-0.01-19.48 0.03-29.21-0.03 0.16-42.9 0.06-85.81 0.05-128.7z"/>
  <path d="m373.1 236.5c29.03 0.02 58.06 0.01 87.1 0.01-0.03 8.14-0.06 16.28 0.02 24.42-19.34 0.02-38.67 0-58 0.01 0.02 8.38 0.03 16.77 0 25.15h51.48c-0.02 7.93-0.02 15.86 0 23.8-17.16 0-34.32 0-51.48-0.01 0.02 10.35 0.03 20.7 0 31.06 20.74 0.02 41.49-0.04 62.23 0.03-0.08 8.08-0.09 16.17 0 24.25-30.45 0.06-60.91 0.02-91.37 0.03 0.05-42.92 0.02-85.83 0.02-128.8z"/>
 </g>
</svg>
