<?xml version="1.0" encoding="UTF-8"?>
<svg enable-background="new 0 0 343 188.7" version="1.1" viewBox="0 0 343 188.7" xml:space="preserve" xmlns="http://www.w3.org/2000/svg">
<style type="text/css">
	.st0{fill:#000000;}
	.st1{fill:none;}
</style><g fill="#000000">
<path class="st0" d="m133.5 41.1-0.5 3.8h-12.8-12.9l-0.5-3.8h26.7m2.3-14.6s-0.7-4.1-3.6-3c0 0-3.2 1.4-1 6.1 0 0 0.4-1.5 1.8-1.4 0 0 2.6 0.3 1.3 3.6 0 0-1 2.3-3 1.8 0 0-2.9-0.3-2.9-4.6 0 0-2 3.8-4.3 3.5 0 0-2.9 0.3-2.8-3.1 0 0 0.2-2.5 2.3-2.9 0 0 2.5-0.3 2.1 2.1 0 0 5.8-4.9 0.5-7.8 0 0-2.3-1-4.2 1.2 0 0 1-1.2 1.1-2.8 0 0 0.9-2.9-2.7-4.9-3.6 2-2.7 4.9-2.7 4.9 0.1 1.6 1.1 2.8 1.1 2.8-2-2.3-4.3-1.2-4.3-1.2-5.3 3 0.5 7.8 0.5 7.8-0.5-2.4 2.1-2.1 2.1-2.1 2.1 0.4 2.3 2.9 2.3 2.9 0 3.4-2.9 3.1-2.9 3.1-2.5 0.3-4.5-3.5-4.5-3.5 0 4.3-2.9 4.6-2.9 4.6-2 0.5-3-1.8-3-1.8-1.3-3.3 1.3-3.6 1.3-3.6 1.4-0.1 1.8 1.4 1.8 1.4 2.2-4.7-1-6.1-1-6.1-2.9-1.1-3.6 3-3.6 3-1.9-4.8-5.6-3.6-5.6-3.6 5.6 7.6 7.6 14.8 7.6 14.8h27.4s1.9-7.2 7.6-14.8c-0.1 0-3.9-1.3-5.8 3.6m-29.3 21.6h13.7v3.8h-13.7s-1.9 0-1.9-1.9c0 0 0-1.9 1.9-1.9m29.2 1.9c0 1.9-1.9 1.9-1.9 1.9h-13.7v-3.8h13.7c1.9 0 1.9 1.9 1.9 1.9"/>
<path class="st0" d="m9.7 41.4c-2.9 0-2.9-4.1 0-4.1h18.7c2.9 0 2.9 4.1 0 4.1h-18.7m3.1 6.7h12.5c2.9 0 2.9-4.1 0-4.1h-12.5c-2.9 0-2.9 4.1 0 4.1m3.1 6.7h6.4c2.8 0 2.8-4.1 0-4.1h-6.4c-2.9 0-2.9 4.1 0 4.1m-7.5-20.1s-2.9-2.5-0.5-8.2c0 0 2.2 3.3 6 3.9 0 0 1.6-6.1 5.7-6.9 0 0-1.5 3.8 2.4 7 0 0 3.4-4.8 7.7-4.8 0 0-2.4 2.4-1 4.7 0 0 1.3 2.6-0.2 4.3 0 0 2.7 0 4.7-1.7 0 0 2.9-1.7 1.6-8.1 0 0-0.7-4.3 6.1-5.9 0 0-7.8-3.3-15.7 2.2 0 0-3.8-5.6 4-10.1 0 0-13-1.1-18.7 11.4 0 0-4.8-2.4-1.6-8.3 0 0-8.9 3.3-8.1 13.8-0.2-0.1 0 6.7 7.6 6.7"/>
<path class="st0" d="m79.5 31.6s-1.3-0.8-0.6-2.3c0 0 0.5-1.6-0.5-2.9 0 0-1.2-1.4-2.6-0.4l-0.1 0.1s0.7-1.8-1.2-2.6c0 0-1.2-0.7-3.1 0.6 0 0-1.2 1-2.4-0.2 0 0-1.4-1-2.9-0.4 0 0-1.7 0.7-1.2 2.4l0.1 0.1c-0.2-0.1-1.5-1.1-2.8 0.3 0 0-1 0.9-0.4 3.2 0 0 0.5 1.4-0.9 2.2 0 0-1.4 1.1-1.3 2.6 0 0 0.1 1.8 1.9 1.9h0.1s-1.6 1.1-0.6 2.8c0 0 0.6 1.2 2.9 1.3 0 0 1.5-0.1 1.8 1.5 0 0 0.6 1.6 2.1 2 0 0 1.8 0.4 2.4-1.2v-0.2s0.5 1.9 2.4 1.4c0 0 1.4-0.1 2.2-2.4 0 0 0.4-1.5 2-1.3 0 0 1.7-0.1 2.6-1.4 0 0 1-1.6-0.4-2.6h-0.1s1.9 0.1 2.1-1.9c0.1 0.2 0.3-1.2-1.5-2.6m-3.8 3.6s-1 3.7-5.4 3.9c0 0-3.8 0.1-5.4-3.9 0 0-1.3-3.6 2.1-6.3 0 0 3-2.4 6.6 0 0.1 0 3.3 2.1 2.1 6.3l2.5 0.8-2.5-0.8zm-8-1.7c0-1.5 1.2-2.7 2.7-2.7s2.7 1.2 2.7 2.7-1.2 2.7-2.7 2.7c-1.5-0.1-2.7-1.3-2.7-2.7m23.4-2.7s-1.1-3.3-4.4-2.6c0 0 3-1.6 1.9-4.7 0 0-1.5-4.2-5.8-3.2 0 0-1.8 0.2-2.6-0.5l-0.6 0.9 0.6-0.9s-0.9-0.5-1.3-2.3c0 0-0.4-4.4-4.8-4.5 0 0-3.5 0-3.9 3.3 0 0-0.6-3.3-3.8-3.3 0 0-4.4 0.1-4.8 4.5 0 0-0.4 1.7-1.3 2.3 0 0-0.8 0.7-2.6 0.5 0 0-4.3-1-5.8 3.2 0 0-1.1 3.3 2 4.7 0 0-3.4-0.4-4.3 2.6 0 0-1.3 4.2 2.8 6 0 0 1.6 0.9 1.8 1.9 0 0 0.4 1-0.3 2.6 0 0-2.3 3.8 1.2 6.5 0 0 2.8 2.1 5.1-0.4 0 0-1.4 3.1 1.2 4.9 0 0 3.6 2.5 6.6-0.8 0 0 1.3-1.2 2.4-1.1v-2.2 2.2s1.1-0.1 2.4 1.1c0 0 2.9 3.3 6.6 0.8 0 0 2.8-2 1.2-5 0 0 2.5 2.3 5.1 0.4 0 0 3.5-2.7 1.2-6.5 0 0-0.7-1.6-0.3-2.6l-1.2-0.4 1.2 0.4s0.2-1 1.8-1.9c-0.1 0.1 4-1.7 2.7-5.9m-5.7 4.2s-0.5 2.5-3.1 2.4c0.2 0.1 2.1 1.6 1.1 3.7 0 0-1.2 2.6-4.3 1.9 0 0-1.9-0.4-2.4 1.7 0 0-0.4 3.2-3.2 3.5 0 0-2.5 0.3-3.2-2.2 0 0.1-0.8 2.5-3.2 2.2 0 0-2.8-0.3-3.2-3.5 0 0-0.2-1.9-2.4-1.7 0 0-3.1 0.6-4.3-1.9 0 0-1.1-2.3 1.1-3.7-0.1 0-2.6 0-3.1-2.4 0 0-0.5-2.8 2.4-4.1 0 0 1.8-0.8 0.9-2.8 0 0-1.6-2.8 0.5-4.7 0 0 1.8-1.7 3.9-0.1-0.1-0.2-0.8-2.5 1.3-3.7 0 0 2.5-1.4 4.6 1 0 0 1.3 1.4 2.9 0 0 0 2.2-2.4 4.6-1 0 0 2.2 1.2 1.3 3.7 0.1-0.1 2.1-1.6 3.9 0.1 0 0 2.1 1.9 0.5 4.7 0 0-1 1.7 0.9 2.8 0.2 0 3.1 1.3 2.5 4.1"/>
<path class="st0" d="m209.8 19.5c-0.7-3.4-3-3.7-4-3.7v1.2c1 0 1.3 0.8 1.3 1.2-0.1 1.2-1.2 1.2-1.2 1.2-0.7 0-1.2-0.6-1.2-1.2 0-0.7 0.5-1.2 1.1-1.3v-1.2c-3-0.1-2.9 2.4-2.9 2.4-0.7 0.6-2.2 1.1-2.2 1.1-0.5 0.4-0.5 1.2-0.5 1.2v0.5c2.7-1.1 3.4-0.6 3.4-0.6l0.5 0.4c0.7 0.9 0.9 2.9 0.9 2.9-0.5 3.9-3.8 3.9-3.3 9.5 0.4 9 12.5 11.3 12.5 11.3 0.7 1.4-0.9 4.4-0.9 4.4-0.2 0.5-0.6 0.5-2.1 0.2-0.8-0.1-1.3-0.3-1.3-0.3-2.5-0.9-1.6 1.8-1.6 1.8h9.1c0.7-2.5-1-1.7-1-1.7-1.7 0.8-1.5-0.1-1.5-0.1 0.5-2.7 1.8-4.4 1.8-4.4-21.2-12.8-7.1-16.6-7.1-16.6s-9.6 4.8 11.9 16.5c5.4 3.3 5.6 3.4 7.3 4.3 1.2 0.8 1.5 0.3 1.5 0.3 0.2-0.4-0.4-1-0.4-1l-5-6.2c6.6 4.2 9.5 6.4 9.5 6.4 3.1 1.3 7.7-2.9 1.7-5.4-25-13.4-26.3-23.1-26.3-23.1"/>
<path class="st0" d="m184.9 25s-4.4-1.2-7.6 3.4c0 0-2.6 3.3-3 10.1h-2.7s0.2-4.4 1.3-8.6c0 0 0.7-2.6 1.5-7 0 0 0.8-3.8-0.4-6.6 0 0-1.5-4.4-4.3-4.2-2.8-0.2-4.3 4.2-4.3 4.2-1.2 2.9-0.4 6.6-0.4 6.6 0.8 4.4 1.5 7 1.5 7 1.2 4.2 1.4 8.6 1.4 8.6h-2.7c-0.4-6.9-3-10.1-3-10.1-3.2-4.6-7.6-3.4-7.6-3.4-5.5 1.3-5.4 6.7-5.4 6.7-0.1 4.8 2.8 6.4 2.8 6.4 2.5 1.6 5.2 1.1 5.2 1.1-0.9-0.9-1.4-1.7-1.4-1.7-1-2.2 0.9-3.3 0.9-3.3 1.9-1 3.5 0.7 3.5 0.7 1.5 1.5 1.9 3.6 1.9 3.6h-2c-1.8 0-1.8 2.1-1.8 2.1 0 2.1 1.8 2.1 1.8 2.1h2c-0.2 2.1-2.2 2-2.2 2-2 0-3.3-2.6-3.3-2.6-1.4 1.5-0.9 3.4-0.9 3.5 0.7 3.5 4.2 3.4 4.2 3.4 5.1 0 5.3-6.1 5.3-6.1h2.6c-0.6 6.9-3.8 8.1-3.8 8.1 1.4 3.5 5.6 3.3 5.6 3.3s4.2 0.2 5.6-3.3c0 0-3.3-1.2-3.8-8.1h2.6s0.2 6.2 5.3 6.1c0 0 3.5 0.1 4.2-3.4 0 0 0.5-1.9-0.9-3.5 0 0-1.3 2.6-3.2 2.6 0 0-2 0.2-2.2-2h2s1.8 0 1.8-2.1c0 0 0-2.1-1.8-2.1h-2s0.4-2.2 1.9-3.6c0 0 1.6-1.7 3.5-0.7 0 0 1.9 1 0.9 3.3 0 0-0.5 0.8-1.4 1.7 0 0 2.7 0.5 5.2-1.1 0 0 2.9-1.6 2.8-6.4 0.2 0 0.4-5.4-5.2-6.7"/>
<path class="st0" d="m4.5 100.9v-20.6c0-0.9-0.9-2-1.9-2h-2.4v-3.9h16.3v3.9h-5.2v22.9c0 8.3 4.1 10.4 10.1 10.4 5.9 0 10-2 10-10.4v-22.9h-5.2v-3.9h14.6v3.9h-2.4c-0.9 0-1.8 1.1-1.8 2v20.6c0 10.6-5.4 15.5-15.9 15.5-10.1 0-16.2-4.9-16.2-15.5"/>
<path class="st0" d="M42.7,112.2h2.5c0.9,0,1.8-1.1,1.8-1.9v-30c0-0.9-1-2-1.8-2h-2.5v-3.9h11.6l19.1,30.4h0.2V78.3h-5.2v-3.9h14.7  v3.9h-2.4c-0.9,0-1.8,1.1-1.8,2V116h-5.9L52.5,83.7h-0.2v28.5h5.3v3.8H42.7V112.2z"/>
<path class="st0" d="m84.9 112.2h3c1 0 1.8-1.1 1.8-1.9v-30c0-0.9-0.9-2-1.8-2h-3v-3.9h16.5v3.9h-3c-1 0-1.8 1.1-1.8 2v30c0 0.8 0.9 1.9 1.8 1.9h3v3.8h-16.5v-3.8z"/>
<path class="st0" d="m107.1 80.3c-0.4-1-1.4-2-2.4-2h-1.4v-3.9h15.9v3.9h-5.2l10.5 30.8h0.1l9.5-27c0.9-2.5 0.3-3.9-2-3.9h-2.6v-3.9h14.5v3.9h-1.3c-1.2 0-2.2 0.9-2.6 2.1l-13 35.6h-7.4l-12.6-35.6z"/>
<path class="st0" d="m145.9 112.2h2.5c0.9 0 1.8-1.1 1.8-1.9v-30c0-0.9-1-2-1.8-2h-2.5v-3.9h32.1v11.1h-4.3l-0.7-6.8h-16v14.1h8.1l0.5-4.9h4.2v14h-4.2l-0.5-4.9h-8.1v15h16.5l0.7-7.6h4.5v11.6h-32.8v-3.8z"/>
<path class="st0" d="m196.9 93.7c6.4 0 8.8-2.4 8.8-7.4 0-5.3-2.6-7.7-8.8-7.7h-5.6v15.2h5.6zm-16.8 18.5h2.5c0.9 0 1.8-1.1 1.8-1.9v-30c0-0.9-1-2-1.8-2h-2.5v-3.9h17c9.5 0 15.7 3.3 15.7 11.5 0 5.9-3.7 8.7-9.3 9.7v0.2c4.2 0.9 6.6 2.6 8.4 9.3l1.5 5.5c0.3 1.1 1.1 1.6 1.7 1.6h2v3.8h-9.7l-2.3-11.2c-1.1-5.4-3.2-7-8.6-7h-5.2v14.4h5.3v3.8h-16.5v-3.8z"/>
<path class="st0" d="m224.6 114.5c-0.4 0-0.8 0.7-0.9 1.5h-4.5v-12.1h4.7l0.6 5c2.1 2 4.2 3.1 8.7 3.1 4.8 0 7.9-2.2 7.9-6.8 0-5.6-4.2-6.3-10.2-8-7.3-2-10.9-5.1-10.9-12.1 0-7.5 5.5-11.2 13.2-11.2 4.2 0 6.3 1.1 7.5 1.7 0.4 0 0.8-0.7 0.9-1.3h4.3v11h-4.6l-0.6-4.2c-1.5-1.4-3.5-2.9-7.5-2.9-4.3 0-7.3 1.7-7.3 6.2 0 4.9 3.8 5.7 9.5 7.2 8 2.1 12 4.7 12 12.4 0 8-4.9 12.2-14 12.2-4.8 0.2-7.2-0.8-8.8-1.7"/>
<path class="st0" d="m249.5 112.2h3c0.9 0 1.8-1.1 1.8-1.9v-30c0-0.9-0.9-2-1.8-2h-3v-3.9h16.5v3.9h-3c-1 0-1.8 1.1-1.8 2v30c0 0.8 0.9 1.9 1.8 1.9h3v3.8h-16.5v-3.8z"/>
<path class="st0" d="m277.7 112.2h2.9c1 0 1.8-1.1 1.8-1.9v-31.8h-8.9l-0.6 8.8h-4.5v-12.9h34.8v12.9h-4.5l-0.6-8.8h-8.9v31.8c0 0.8 0.9 1.9 1.8 1.9h2.9v3.8h-16.3v-3.8z"/>
<path class="st0" d="m316.3 112.2h2.9c0.9 0 1.8-1.1 1.8-1.9v-11.5l-11.6-18.7c-0.7-1-1.5-1.8-2.6-1.8h-1.2v-3.9h15.4v3.9h-4.9l9.3 15.3h0.1l6.9-11.4c1.5-2.5 0.5-3.9-1.9-3.9h-1.9v-3.9h14.3v3.9h-1.1c-1.1 0-2 0.8-2.7 1.9l-11.2 18.3v11.8c0 0.8 0.9 1.9 1.8 1.9h2.9v3.8h-16.3v-3.8z"/>





</g><g fill="#b0b0c0"><path class="st0" d="m33.6 149.1c0-11.1-5.4-16.6-12.7-16.6-7.4 0-12.8 5.6-12.8 16.6s5.4 16.6 12.8 16.6c7.3-0.1 12.7-5.6 12.7-16.6m-32.7-0.2c0-13.7 9.2-21.2 20-21.2s19.9 7.5 19.9 21.2-9.2 21.2-19.9 21.2c-10.8 0.1-20-7.4-20-21.2"/><path class="st0" d="m41.5 165.9h2.5c0.9 0 1.8-1.1 1.8-1.9v-30c0-0.9-1-2-1.8-2h-2.5v-3.9h31.8v11.4h-4.3l-0.8-7.2h-15.4v15h7.9l0.5-5.1h4.1v14.4h-4.1l-0.5-5.3h-7.9v14.4h5.3v3.8h-16.6v-3.6z"/><path class="st0" d="M87.7,165.9h2.5c0.9,0,1.8-1.1,1.8-1.9v-30c0-0.9-1-2-1.8-2h-2.5v-3.9h16.5v3.9H99v14.3h18.7v-14.3h-5.3v-3.9  H129v3.9h-2.5c-0.9,0-1.9,1.1-1.9,2v30c0,0.8,1,1.9,1.9,1.9h2.5v3.8h-16.6v-3.8h5.3v-15.5H99v15.5h5.3v3.8H87.7V165.9z"/><path class="st0" d="m135.2 154.6v-20.6c0-0.9-0.9-2-1.9-2h-2.4v-3.9h16.3v3.9h-5.2v23c0 8.3 4.1 10.4 10.1 10.4 5.9 0 10-2 10-10.4v-22.9h-5.2v-3.9h14.6v3.9h-2.4c-0.9 0-1.8 1.1-1.8 2v20.6c0 10.6-5.4 15.5-15.9 15.5-10.2 0-16.2-5-16.2-15.6"/><path class="st0" d="m173.4 165.9h2.5c0.9 0 1.8-1.1 1.8-1.9v-30c0-0.9-1-2-1.8-2h-2.5v-3.9h17.2v3.9h-6v33.5h15.2l0.7-8.7h4.7v12.9h-31.7v-3.8z"/><path class="st0" d="m206.9 165.9h2.5c0.9 0 1.8-1.1 1.8-1.9v-30c0-0.9-1-2-1.8-2h-2.5v-3.9h17.2v3.9h-6v33.5h15.2l0.7-8.7h4.7v12.9h-31.7v-3.8z"/></g>
<rect class="st1" width="343" height="188.7"/>
</svg>
