<?xml version="1.0" encoding="UTF-8"?>
<!-- Generator: Adobe Illustrator 28.1.0, SVG Export Plug-In . SVG Version: 6.00 Build 0)  -->
<svg version="1.1" id="Layer_1" xmlns="http://www.w3.org/2000/svg" xmlns:xlink="http://www.w3.org/1999/xlink" x="0px" y="0px" viewBox="0 0 517.5 173.55" style="enable-background:new 0 0 517.5 173.55;" xml:space="preserve">
<g>
	<path d="M252.7,70.99v4.91h-10.23v26.92h36.13V75.9h-10.23v-4.91h33.36v4.91h-10.23v60.79h10.23v4.91h-33.36v-4.91h10.23v-28.96   h-36.13v28.96h10.23v4.91h-33.36v-4.91h10.23V75.9h-10.23v-4.91H252.7z M369.64,75.9h-10.95v-4.91h27.02v4.91h-10.13v39.3   c0,17.09-13.21,27.43-28.14,27.43c-13.31,0-28.86-8.5-28.86-27.12V75.9h-10.23v-4.91h33.37v4.91h-10.23v37.67   c0,13.97,7.16,21.08,19.14,21.08c11.56,0,19.04-7.58,19.04-20.98V75.9z M392.42,75.9v-4.91h33.36v4.91h-10.23v60.79h21.18   l16.68-19.45l-4.3,24.36h-56.7v-4.91h10.23V75.9H392.42z M456.51,75.9v-4.91h33.36v4.91h-10.23v60.79h21.18l16.68-19.45l-4.3,24.36   h-56.7v-4.91h10.23V75.9H456.51z M193.73,105.54h-5.16l1.67-2.78h4.35c3.95-11.13,9.51-17.15,15.53-17.15   c2.88,0,4.15,1.57,4.15,3.04c0,1.72-1.16,2.88-2.53,3.54l-5.97-3.79l-5.01,14.37l11.52,0.05l-1.67,2.78l-10.81-0.05l-5.72,16.54   c-3.64,10.72-8.5,17.65-14.31,17.65c-2.12,0-3.19-1.42-3.19-3.29c0-1.21,0.66-2.33,1.42-3.09l6.83,2.38L193.73,105.54z    M193.25,26.69h-5v-2.24h12.34v2.24h-4.63v17.95c0,7.81-6.03,12.53-12.85,12.53c-6.08,0-13.18-3.88-13.18-12.39V26.69h-4.67v-2.24   h15.24v2.24h-4.67v17.2c0,6.12,3.27,9.63,8.74,9.63c5.28,0,8.69-3.46,8.69-9.58V26.69z M206.96,56.69v-2.24h4.67V29.96l-4.95-5.52   h7.76l19.91,22.58V26.69h-4.95v-2.24h12.29v2.24h-4.63v31.5L214.3,32.9v21.55h5v2.24H206.96z M264.37,24.44v2.24h-4.67v27.76h4.67   v2.24h-15.24v-2.24h4.67V26.69h-4.67v-2.24H264.37z M288.21,48.65l8.93-21.97h-5.61v-2.24h12.01v2.24h-3.69l-13.32,31.74   l-13.32-31.74h-3.69v-2.24h15.42v2.24h-5.38L288.21,48.65z M329.26,33.79v12.67l-4.02-5.23h-5.94v13.23h10.28l7.67-8.88   l-1.96,11.12h-26.55v-2.24h4.67V26.69h-4.67v-2.24h23.37l2.52-1.36v10.8l-5.66-7.2h-9.68v12.29h5.94L329.26,33.79z M359.15,56.69   h-15.24v-2.24h4.67V26.69h-4.67v-2.24h14.3c7.76,0,13.41,2.57,13.41,8.55c0,4.44-3.69,7.1-8.32,8.23l13.6,15.47h-7.57l-12.39-14.91   h-2.48v12.67h4.67V56.69z M354.47,39.59h2.99c4.49,0,8.04-1.92,8.04-6.5c0-4.53-3.55-6.4-8.04-6.4h-2.99V39.59z M386.42,31.16   c0,7.2,16.36,5.52,16.36,15.75c0,6.03-5.42,10.28-12.06,10.28c-3.79,0-7.76-1.45-9.96-3.46v-8.41c2.66,5.84,6.4,9.44,10.75,9.44   c3.23,0,5.89-1.92,5.89-5.42c0-8.18-15.89-5.7-15.89-15.94c0-5.23,4.39-9.39,9.96-9.39c2.71,0,5.23,1.12,6.64,2.34l3.46-2.38v11.03   c-2.85-4.63-5.98-8.51-10.19-8.51C388.43,26.48,386.42,28.35,386.42,31.16z M425.3,24.44v2.24h-4.67v27.76h4.67v2.24h-15.24v-2.24   h4.67V26.69h-4.67v-2.24H425.3z M430.77,34.16V23.09l2.52,1.36h26.08l2.52-1.36v11.08l-5.66-7.48h-6.92v27.76h5.33v2.24h-16.64   v-2.24h5.37V26.69h-6.96L430.77,34.16z M473.23,56.69v-2.24h5.37V41.13l-10.52-14.44h-3.69v-2.24h16.13v2.24h-5.47l8.32,12.06   l8.65-12.06h-5.52v-2.24h12.15v2.24h-3.69L484.5,41.13v13.32h5.37v2.24H473.23z M169.44,125.88c-4.57,0-6.87-3.49-6.87-7.94   c0-7.59,7.07-16.03,14.96-16.03c4.7,0,6.87,3.54,6.87,7.99C184.4,117.49,177.46,125.88,169.44,125.88z M169.26,124.32   c5.29-1.92,9.69-10.67,9.69-16.94c0-1.92-0.51-3.29-1.24-3.84c-5.24,1.87-9.63,10.62-9.63,16.89   C168.08,122.34,168.58,123.71,169.26,124.32z"/>
	<g>
		<path d="M63.96,87.44c1.12-0.12,2.9-0.17,4.41-0.17c1.29,0,3.21,0.12,4.42,0.26c0.25-0.59,0.41-1.21,0.58-2.11    c0.24-1.68-0.11-3.66-1.38-5.5c-1.02-1.48-1.23-2.57-1.23-3.72c0-0.32,0.03-0.61,0.07-0.9c-0.37,0.41-0.82,1.2-0.89,2.18    c-0.14,2.12,0.91,2.72,0.79,5.45c-0.07,1.53-0.44,2.69-1.12,3.54c-0.19,0.24-0.39,0.5-0.51,0.59c-0.34-0.94-1.03-1.51-1.57-2.61    c-0.39-0.81-0.7-1.9-0.71-3.64c-0.01-2.2-1.2-3.38-1.63-3.36c0.11,0.39,0.53,1.43,0.3,2.87c-0.18,1.1-0.94,2.22-0.92,3.12    c0.03,1.04,0.35,1.34,0.2,2.09C64.62,86.29,64.29,86.8,63.96,87.44z"/>
		<path d="M34.45,104.6c0.01-0.11,0.02-0.22,0.02-0.33c0-0.79-0.3-1.51-0.79-2.05c0.91-1.36,1.6-3.26,1.6-3.26s-1.59,1.25-2.61,2.53    c-0.38-0.17-0.8-0.27-1.25-0.27c-0.45,0-0.87,0.1-1.25,0.27c-1.01-1.28-2.61-2.53-2.61-2.53s0.69,1.9,1.6,3.26    c-0.49,0.54-0.79,1.26-0.79,2.05c0,0.11,0.01,0.22,0.02,0.33c-1.53,0.57-3.21,1.7-3.21,1.7s2.02-0.07,3.6-0.51    c0.43,0.74,1.16,1.29,2.02,1.47c0.07,1.63,0.62,3.58,0.62,3.58s0.56-1.95,0.62-3.58c0.87-0.18,1.6-0.73,2.02-1.47    c1.57,0.44,3.6,0.51,3.6,0.51S35.98,105.17,34.45,104.6z"/>
		<path d="M0,0v92.46c0,44.56,35.11,73.77,68.37,81.09c33.26-7.32,68.37-36.53,68.37-81.09V0H0z M13.8,100.11    c-1.49-0.94-2.46-1.97-3.15-2.58c0.91-0.09,2.3-0.36,4.07-0.24c1.47,0.1,2.48,0.75,2,2.21C16.24,100.96,15.04,100.89,13.8,100.11z     M22.01,119.74c-1.35,1.13-2.64,1.73-3.43,2.2c0.19-0.9,0.37-2.3,1.03-3.94c0.55-1.37,1.48-2.12,2.72-1.22    C23.58,117.68,23.15,118.8,22.01,119.74z M34.45,112.28c0.9,1.41,2.77,1.27,3.59,2.77c0.26,0.48,0.55,1.41-0.17,2.59    c-1.23,2.03-4.14,2.67-6.44,2.62c-2.31,0.04-5.21-0.59-6.44-2.62c-0.71-1.18-0.43-2.1-0.17-2.59c0.82-1.5,2.69-1.36,3.59-2.77    c0.69-1.08,0.35-2.49-0.53-3.12c-0.87-0.65-2.31-0.53-3.13,0.46c-1.07,1.29-0.35,3.03-1.53,4.27c-0.38,0.4-1.17,0.96-2.51,0.64    c-2.31-0.55-3.81-3.11-4.49-5.32c-0.75-2.18-1.04-5.14,0.5-6.94c0.9-1.04,1.87-1.06,2.41-0.96c1.68,0.31,2.12,2.14,3.74,2.56    c1.24,0.32,2.48-0.43,2.8-1.47c0.35-1.03-0.21-2.36-1.4-2.84c-1.56-0.61-2.99,0.6-4.53-0.13c-0.5-0.24-1.27-0.82-1.38-2.19    c-0.19-2.37,1.78-4.59,3.67-5.91c1.84-1.39,4.57-2.58,6.75-1.67c1.27,0.53,1.59,1.45,1.66,1.99c0.22,1.7-1.38,2.68-1.27,4.35    c0.08,1.28,1.18,2.22,2.26,2.21c1.09,0.01,2.18-0.93,2.26-2.21c0.1-1.67-1.5-2.65-1.27-4.35c0.07-0.55,0.39-1.46,1.66-1.99    c2.19-0.92,4.91,0.27,6.75,1.67c1.89,1.32,3.87,3.54,3.67,5.91c-0.11,1.37-0.89,1.96-1.38,2.19c-1.54,0.74-2.97-0.48-4.53,0.13    c-1.19,0.47-1.75,1.8-1.4,2.84c0.33,1.04,1.56,1.79,2.8,1.47c1.62-0.42,2.06-2.24,3.74-2.56c0.54-0.1,1.51-0.08,2.41,0.96    c1.55,1.8,1.26,4.76,0.5,6.94c-0.67,2.21-2.18,4.77-4.49,5.32c-1.34,0.32-2.13-0.24-2.51-0.64c-1.18-1.24-0.46-2.98-1.53-4.27    c-0.82-0.99-2.26-1.11-3.13-0.46C34.09,109.8,33.76,111.2,34.45,112.28z M29.94,86.22c0.43-1.71,1.11-2.95,1.48-3.79    c0.37,0.84,1.05,2.08,1.48,3.79c0.36,1.43,0.05,2.58-1.48,2.58C29.88,88.81,29.58,87.65,29.94,86.22z M48.13,97.28    c1.76-0.12,3.15,0.15,4.07,0.24c-0.69,0.61-1.65,1.65-3.15,2.58c-1.25,0.78-2.44,0.85-2.92-0.61    C45.65,98.03,46.66,97.38,48.13,97.28z M40.51,116.78c1.24-0.9,2.17-0.15,2.72,1.22c0.66,1.64,0.83,3.04,1.03,3.94    c-0.79-0.46-2.08-1.06-3.43-2.2C39.7,118.8,39.26,117.68,40.51,116.78z M53.29,150.32c0.73-0.45,2.65-1.13,5.33-1.57    c1.71,0.62,3.61,1.09,5.99,1.38c0.12,1.06,0.22,2.23,0.3,3.36C60.07,153.12,56.05,151.94,53.29,150.32z M68.37,166.05    c-1.85,0-3.32-1.49-3.32-3.32c0-1.84,1.48-3.32,3.32-3.32c1.83,0,3.31,1.49,3.31,3.32C71.68,164.56,70.2,166.05,68.37,166.05z     M65.73,147.81c0.95-0.56,2.1-0.7,2.64-0.7c0.53,0,1.72,0.13,2.65,0.7c-0.62,3.19-0.85,9.77-0.88,10.48    c-0.55-0.22-1.15-0.34-1.78-0.34c-0.62,0-1.22,0.12-1.76,0.33C66.58,157.51,66.35,150.98,65.73,147.81z M71.83,153.49    c0.08-1.12,0.18-2.3,0.3-3.36c2.39-0.28,4.28-0.76,5.99-1.38c2.67,0.43,4.6,1.11,5.33,1.57    C80.69,151.94,76.67,153.12,71.83,153.49z M91.57,133.18c-1.39,2.08-2.29,2.97-4.34,7.8c-1.51,3.57-1.87,7.15-1.87,7.15    c-1.41-1.08-4.78-2.01-8.17-2.42c-4.35-0.52-6.64-0.53-8.81-0.53c-2.16,0-4.46,0.01-8.81,0.53c-3.4,0.41-6.76,1.34-8.17,2.42    c0,0-0.36-3.58-1.87-7.15c-2.05-4.83-2.95-5.72-4.34-7.8c-0.29-0.44-1.42-1.88-1.42-1.88c0.43-0.5,1.03-0.38,1.48-0.29    c0.58,0.11,1.11,0.35,2.22,0.01c0.56-0.17,1.31-0.36,1.68,0.2c0.4,0.62-0.17,1.32-0.59,2.08c-0.5,0.89-0.59,2.16-0.25,2.69    c0,0,0.48,0,0.81-0.26c0.31-0.24,0.63-0.48,0.78-1.13c0.2-0.84,0-1.98,0.7-2.27c0.56-0.23,1.06,0.22,1.27,0.75    c0.44,1.09,1.44,0.84,1.82,1.76c0.4,0.98-0.44,1.47,0.01,2.72c0.19,0.54,0.29,1.06-0.2,1.28c-0.68,0.32-0.98-0.36-2.24-1    c-0.73-0.37-1.48-0.19-1.7,0.08c0,0,0.09,0.64,0.81,1.48c1.38,1.61,2.88,1.83,4.06,1.57c2.2-0.48,2.83-3.39,3.19-4.68    c0.49,0.76,1.89,3.59,4.86,3.55c2.54-0.03,3.97-1.58,4.37-2.85c0.43-1.38,0.26-2.74,0.26-2.74c-0.55,0-1.61,0.33-2.22,1.07    c-1.06,1.3-1.5,2.04-2.22,2.04c-0.63,0-0.75-0.64-0.75-1.32c0-1.46-1.03-1.6-1.03-3.04c0-1.22,1.03-1.36,1.03-2.71    c0-0.68,0.29-1.39,1.01-1.39c0.89,0,1.24,1.49,1.99,2.41c0.5,0.61,1.29,0.86,1.61,0.95c0.15,0.04,0.42,0.07,0.6,0.06    c0.03-0.91-0.5-2.47-1.44-3.3c-1.27-1.11-1.8-1.52-1.8-2.22c0-0.62,0.66-0.68,1.35-0.68c1.49,0,1.81-1.23,3.14-1.23    c1.33,0,1.65,1.23,3.14,1.23c0.69,0,1.35,0.06,1.35,0.68c0,0.7-0.54,1.11-1.8,2.22c-0.95,0.83-1.47,2.39-1.44,3.3    c0.18,0.02,0.45-0.02,0.6-0.06c0.32-0.09,1.11-0.34,1.61-0.95c0.75-0.92,1.1-2.41,1.99-2.41c0.72,0,1.01,0.71,1.01,1.39    c0,1.35,1.03,1.49,1.03,2.71c0,1.44-1.03,1.58-1.03,3.04c0,0.68-0.11,1.32-0.75,1.32c-0.71,0-1.16-0.74-2.22-2.04    c-0.6-0.74-1.66-1.07-2.22-1.07c0,0-0.17,1.36,0.26,2.74c0.4,1.27,1.83,2.83,4.37,2.85c2.97,0.03,4.36-2.8,4.86-3.55    c0.36,1.29,0.99,4.2,3.19,4.68c1.18,0.26,2.68,0.04,4.06-1.57c0.71-0.84,0.81-1.48,0.81-1.48c-0.22-0.28-0.97-0.45-1.7-0.08    c-1.26,0.64-1.56,1.31-2.24,1c-0.48-0.22-0.39-0.75-0.2-1.28c0.45-1.25-0.39-1.75,0.01-2.72c0.37-0.91,1.37-0.67,1.82-1.76    c0.22-0.53,0.72-0.97,1.27-0.75c0.69,0.28,0.5,1.42,0.7,2.27c0.15,0.65,0.47,0.89,0.78,1.13c0.34,0.26,0.81,0.26,0.81,0.26    c0.34-0.53,0.25-1.81-0.25-2.69c-0.42-0.76-0.99-1.46-0.59-2.08c0.36-0.56,1.12-0.36,1.68-0.2c1.11,0.33,1.65,0.1,2.22-0.01    c0.45-0.09,1.05-0.21,1.48,0.29C92.99,131.3,91.86,132.74,91.57,133.18z M62.02,79.36c0.15-1.03,0.66-2.65,0.1-4.38    c-0.56-1.73-2.43-3.65-2.91-6.46c-0.42-2.48,0.47-5.14,3.04-5.65c0,0-1.7,2.53-0.56,5.1c0.58,1.32,2.38,3,3.07,3.88    c1.13,1.44,1.51,2.38,1.51,3.82c0,0.17-0.02,0.34-0.03,0.51c0.5-1.51,0.95-2.85,0.86-4.6c-0.13-2.25-1.31-2.89-1.51-5.46    c-0.34-4.36,3.62-6.88,4.22-7.34c-0.44,1.17-1.12,3.03-1.12,4.97c0,2.56,2.63,4.12,2.75,6.78c0.08,1.44-0.15,2.39-0.4,3.22    c0.24-0.55,0.59-1.11,1.11-1.78c0.68-0.87,2.48-2.56,3.07-3.87c1.14-2.57-0.56-5.1-0.56-5.1c2.57,0.51,3.46,3.16,3.04,5.65    c-0.47,2.81-2.35,4.73-2.9,6.46c-0.56,1.73-0.06,3.34,0.09,4.37c0.24,1.6-0.39,3.57-0.39,3.57s1.7-1.28,2.35-4.16    c0.32-1.48,1.07-3.45,1.68-4.8c0.68-1.53,3.02-4.37,5.3-4.37c0,0-2.79,2.77-2.47,7.14c0.18,2.63-1.02,5.34-2.92,7.23    c-1.36,1.35-1.67,2.66-1.58,3.81c0.5,0.12,1.01,0.24,1.51,0.34c1.16,0.23,2.2,0.67,1.98,2.06c-0.23,1.4-0.73,1.71-2.14,1.48    c-3.31-0.55-6.84-1.05-9.86-1.05c-3.22,0-6.9,0.47-9.87,1.05c-1.39,0.27-1.91-0.08-2.12-1.48c-0.22-1.4,0.75-1.79,1.98-2.09    c0.46-0.11,1.12-0.22,1.67-0.36c0.13-1.18-0.16-2.52-1.55-3.91c-1.9-1.88-3.1-4.6-2.9-7.22c0.31-4.37-2.49-7.15-2.49-7.15    c2.29,0,4.63,2.84,5.31,4.38c0.6,1.35,1.35,3.32,1.68,4.8c0.64,2.88,2.34,4.16,2.34,4.16S61.78,80.95,62.02,79.36z M73.73,94.79    c-0.38,2.91-1.44,12.43-1.7,15.49c-0.27,3.18-0.73,10.06-0.73,12.92c0,0-1.08-0.87-2.92-0.87c-1.85,0-2.92,0.87-2.92,0.87    c0-2.85-0.46-9.74-0.73-12.92c-0.26-3.06-1.33-12.57-1.7-15.49c0,0,2.24-1.53,5.36-1.53C71.49,93.26,73.73,94.79,73.73,94.79z     M101.39,114.58c-0.32,1.4-1.3,2.51-2.48,2.82c-1.11,0.29-3.05,0.17-3.71-1.42c-0.35-0.84-0.26-1.96,0.54-2.39    c0.18,0.63,0.81,1.29,1.85,1.34c0.3,0.02,0.61-0.05,0.92-0.24c0.49-0.3,0.81-1.27,0.82-1.85c0.04-0.03,0.32-0.48,1.1-0.52    c0.82-0.04,1.16,0.38,1.31,0.45C101.66,113.49,101.54,113.95,101.39,114.58z M104.77,124.18c-0.01,0.01-0.05,0.03-0.1,0.03    c-0.04,0-0.08-0.03-0.1-0.03c0-0.82-2.67-3.24-2.67-5.46c0-0.99,0.63-2.53,0.96-3.57c0.23-0.71,0.34-1.73,0.44-2.46    c0.15-0.09,0.78-0.49,1.37-0.49s1.22,0.39,1.37,0.49c0.1,0.73,0.21,1.75,0.44,2.46c0.33,1.04,0.96,2.58,0.96,3.57    C107.44,120.94,104.77,123.36,104.77,124.18z M114.15,115.97c-0.66,1.59-2.6,1.71-3.71,1.42c-1.18-0.31-2.15-1.42-2.48-2.82    c-0.15-0.63-0.27-1.1-0.34-1.82c0.14-0.07,0.49-0.5,1.31-0.45c0.77,0.04,1.06,0.49,1.1,0.52c0.01,0.58,0.32,1.55,0.82,1.85    c0.31,0.19,0.62,0.26,0.92,0.24c1.04-0.05,1.67-0.71,1.85-1.34C114.41,114.01,114.5,115.14,114.15,115.97z M119.17,106.45    c-1.99,0.85-2.5,1.68-2.64,2.21c-0.46-0.12-0.7-0.61-0.68-1.02c0.03-0.73,0.63-1.62,1.06-2.36c0.8-1.38-0.22-2.15-0.7-2.28    c-1.45-0.41-2.75,0.43-3.18,0.8c-1.6,1.41-2.11,3.48-2.5,4.59c0.27,0.05,0.51,0.11,0.7,0.16c0.81,0.23,1.48,0.47,1.34,1.41    c-0.16,0.94-0.5,1.14-1.44,0.99c-2.17-0.35-4.26-0.7-6.46-0.7s-4.29,0.35-6.46,0.7c-0.94,0.15-1.28-0.05-1.44-0.99    c-0.15-0.94,0.53-1.18,1.34-1.41c0.2-0.06,0.44-0.11,0.7-0.16c-0.39-1.11-0.89-3.19-2.5-4.59c-0.42-0.37-1.73-1.21-3.18-0.8    c-0.49,0.14-1.5,0.9-0.7,2.28c0.43,0.74,1.03,1.63,1.06,2.36c0.02,0.41-0.22,0.9-0.68,1.02c-0.14-0.54-0.65-1.36-2.64-2.21    c-2.36-1.01-3.36-2.65-3.36-4.92c0-2.23,1.92-4.89,5.68-4.89c1.46,0,3.77,0.49,5.52,2.48c0.59,0.67,1.1,1.52,1.5,2.29    c0.78,1.54,1.63,5.01,1.89,6.6c0.69-0.08,1.3-0.12,1.68-0.13c-0.1-1.25-0.39-3.72-1-6.01c-0.41-1.53-0.84-2.91-1.41-5.59    c-0.16-0.78-0.27-1.64-0.27-3.11c0-5.24,4.16-8.57,4.16-10.21c0.01-0.01,0.06-0.04,0.11-0.04s0.1,0.03,0.11,0.04    c0,1.64,4.16,4.98,4.16,10.21c0,1.48-0.11,2.33-0.27,3.11c-0.57,2.68-1,4.06-1.41,5.59c-0.61,2.29-0.9,4.76-1,6.01    c0.37,0.01,0.99,0.06,1.68,0.13c0.26-1.59,1.11-5.06,1.89-6.6c0.4-0.78,0.9-1.62,1.5-2.29c1.75-1.99,4.06-2.48,5.52-2.48    c3.77,0,5.68,2.66,5.68,4.89C122.53,103.81,121.53,105.44,119.17,106.45z M133.69,61.36c-9.96-0.88-12.74-8.92-20.57-8.92    c-8.29,0-10.91,9-22.38,9c-11.46,0-14.09-9-22.38-9c-8.29,0-10.91,9-22.38,9c-11.46,0-14.09-9-22.38-9    c-7.83,0-10.61,8.04-20.57,8.92V3.05h130.64V61.36z"/>
		<path d="M88.14,27.13c0.74,0.22,1.64,0.47,2.27,0.23c0.21-0.08,0.31-0.26,0.34-0.45c0.03-0.22-0.08-0.44-0.29-0.54    c-0.61-0.28-1.58-0.11-2.28,0.1c-0.32,0.1-0.82,0.27-0.91,0.3c-0.08,0.03-0.06,0.1,0.01,0.12C87.43,26.93,87.86,27.05,88.14,27.13    z"/>
		<path d="M44.47,44.39c1.7,1.68,6.44,6.58,12.36,6.58c2.17,0,4.01-0.47,5.74-1.39c1.28-0.68,3.36-2.24,3.36-2.24    c4.8,0.5,9.83,0.87,14.25-0.2c4.31-1.05,7.35-3.53,8.17-7.64c0.31-1.53-0.02-3.98-0.13-5.81c-0.08-1.33,0.1-2.05,0.78-2.58    c0.82-0.65,2.85-0.84,4.04-0.96c0.27-0.03,0.52-0.05,0.71-0.08c1.77-0.23,3.12-0.47,4.05-1.01c0.1-0.06,0.19-0.12,0.19-0.12    s-0.09-0.16-0.12-0.21c-0.48-0.75-1.38-1.07-2.13-1.31c-0.48-0.15-0.98-0.31-1.4-0.59c-0.89-2-2.83-3.4-5.76-3.4    c-1.67,0-2.86,0.31-4.02,0.91c-0.96,0.5-2.39,1.54-3.23,2.84c-0.66,1.02-1.03,2.05-1.09,2.25c0,0-0.59-1.98-0.8-2.63    c-0.67-2.03-1.15-4.1-1.19-6.24c-0.05-3.61,1.37-6.96,3.8-8.94l0.17-0.14l-0.14-0.17c-0.46-0.6-1.22-0.79-2.02-0.77    c-1.17,0.02-2.44,0.49-3.04,0.78c-0.83,0.4-1.81,1.06-2.07,1.24c-0.03,0-0.9,0-0.93,0c-1.3,0.1-1.97,0.3-3.12,0.73    c-1.16,0.44-2.41,1.28-3.24,2.17c-1.22,1.29-1.89,2.44-2.54,3.79c-3.25-1.84-7.49-5.13-9.61-9.4C55.12,9,54.72,8.09,54.36,7.16    c-0.16-0.41-0.43-0.64-0.83-0.69c-0.61-0.05-1.18,0.14-1.66,0.61c-0.87,0.87-1.34,2.56-1.25,3.65c-0.98,0.41-2.06,1.83-2.34,3.68    c-0.23,1.47-0.03,4.54,0.71,6.19c-1.27,0.54-2.19,2.5-1.51,5.43c0.39,1.69,1.02,2.93,1.91,4.37c1.32,2.14,4.07,4.65,7,6.41    c1.92,1.15,3.69,1.92,5.45,2.6c0.65,0.25,1.93,0.68,2.19,0.78c-3.24,1.41-7.4,2.07-11.13,1.97c-3.72-0.1-7.07-0.75-10.64-2.36    l-0.77-0.39c-0.04,0.25,0.25,1.09,0.4,1.42C42.46,42.16,43.71,43.63,44.47,44.39z M67.75,18.62c0.49-1.24,0.95-1.79,1.23-2.14    c1.3-1.57,3-2.34,4.39-2.55c0,0-0.76,0.68-1.28,1.65c-0.5,0.94-0.8,1.94-0.85,2.66c-0.07,1.05-0.01,1.76,0.48,2.4    c0.22,0.29,0.46,0.62,1.05,0.86c-0.04-0.03-0.32-1.23,0.01-3.02c0.18-0.97,0.64-2.12,1.29-3.07c1.16-1.68,3.46-3.22,5.63-3.77    c-0.63,0.51-1.29,1.43-1.63,1.93c-1.36,2-2.27,4.8-2.06,8.11c0.06,0.92,0.21,1.84,0.41,2.75c0.13,0.59,0.71,2.1,0.71,2.1    c-2.69-2.08-6.01-3.95-8.78-5.45l-1.04-0.61C67.32,19.93,67.57,19.09,67.75,18.62z M46.74,42.73c2.48,0.61,5.49,0.86,8.54,0.74    c6.17-0.23,12.07-1.98,15.38-4.41c0.29-0.21,0.59-0.51,0.59-0.51s-0.38,0.06-0.72,0.08c-3.12,0.19-5.92-0.39-8.45-1.29    c-2.65-0.94-5.57-2.37-7.73-4.16c-0.74-0.61-4.05-3.17-4.73-6.79c-0.32-1.69-0.26-2.81,0.31-3.71c2.03,3.47,5.23,6.18,8.19,8.01    c2.91,1.81,5.03,2.85,6.55,3.35c2.52,0.84,3.36,0.39,3.36,0.39c-4.75-2.29-11.66-6.1-15.36-10.95c-1.03-1.34-2.89-4.13-2.55-7.8    c0.06-0.64,0.38-1.82,0.79-2.23c0.99,5.35,5.76,9.86,12.48,13.98c2.98,1.83,5.07,2.69,6.49,3.1c2.15,0.62,2.8,0.14,2.79,0.13    c0,0-0.67-0.31-1.07-0.5c-4.57-2.17-11.77-6.11-15.27-10.29c-1.94-2.32-3.51-5.07-3.6-8.21c-0.03-0.92,0.05-2.77,0.7-3.29    c1.17,4.17,4.46,8.07,9.82,11.8c0.83,0.58,2.96,1.86,4.43,2.66c5.94,3.26,13.27,6.93,11.08,14.11c-0.04,0.13-0.12,0.38-0.12,0.38    s0.33-0.07,0.73-0.36c0.97-0.69,1.26-2.18,1.32-2.92c0.04-0.51,0.1-0.96,0.18-1.42c0.57-3.02,1.64-4.77,3.4-6.3    c1.01-0.88,2.64-1.56,4.34-1.56c2.23,0,3.33,0.63,3.88,1.72c0.29,0.58,0.31,1.06,0.28,1.35c-0.05,0.39-0.14,0.71-0.47,0.91    c-0.38,0.24-1.05,0.36-1.64,0.46c-1.39,0.22-3.1,0.55-3.7,1.87c-0.4,0.88-0.38,2.2-0.35,3.72c0.05,2.67,0.11,5.84-2.32,8.02    c-3.61,3.24-8.79,3.32-13.09,3.44c-2.18,0.06-7.85-0.22-10.51-0.7c-0.77-0.14-1.39-0.27-1.39-0.27c0.13,0.37,0.56,0.74,1.62,1.1    c0.79,0.27,1.81,0.5,1.86,0.46c-0.32,0.57-2.61,2.37-5.84,2.37c-1.31,0-2.86-0.23-4.63-0.94c-1.84-0.74-3.07-1.93-3.07-1.93    c0.44,0.3,2.11,0.69,2.43,0.75c1.87,0.34,3.81,0.34,5.09-0.5c0.29-0.19,0.53-0.47,0.53-0.47s-0.69,0.04-1.05,0.04    s-2.19,0.07-4.09-0.27c-1.6-0.29-4.07-0.89-6.17-2.56c-0.39-0.31-0.89-0.84-1.09-1.14C45.35,42.38,46.21,42.6,46.74,42.73z"/>
	</g>
</g>
</svg>